<svg xmlns="http://www.w3.org/2000/svg" width="32" height="32" viewBox="0 0 32 32">
  <rect width="32" height="32" rx="8" fill="#0d1117"/>
  <path d="M8.5 11.5a1.5 1.5 0 011.5-1.5h1.17a1.5 1.5 0 001.34-.83l.49-.98A1.5 1.5 0 0114.33 7h3.34a1.5 1.5 0 011.34.83l.49.98a1.5 1.5 0 001.34.83H22a1.5 1.5 0 011.5 1.5V22a1.5 1.5 0 01-1.5 1.5H10A1.5 1.5 0 018.5 22z" fill="none" stroke="white" stroke-width="1.5" stroke-linecap="round" stroke-linejoin="round"/>
  <circle cx="16" cy="16.5" r="3.5" fill="none" stroke="white" stroke-width="1.5"/>
</svg>
